<?xml version="1.0" standalone="no"?>
<!DOCTYPE svg PUBLIC "-//W3C//DTD SVG 20010904//EN"
 "http://www.w3.org/TR/2001/REC-SVG-20010904/DTD/svg10.dtd">
<svg version="1.0" xmlns="http://www.w3.org/2000/svg"
 width="512.000000pt" height="512.000000pt" viewBox="0 0 512.000000 512.000000"
 preserveAspectRatio="xMidYMid meet">
<metadata>
Created by potrace 1.15, written by Peter Selinger 2001-2017
</metadata>
<g transform="translate(0.000000,512.000000) scale(0.100000,-0.100000)"
fill="#ffffff" stroke="none">
<path d="M1988 4558 l-3 -562 -324 349 c-390 421 -431 465 -437 465 -2 0 -4
-180 -4 -400 0 -374 -1 -400 -17 -401 -10 0 -190 0 -401 1 -258 1 -382 -2
-382 -10 0 -5 170 -193 377 -416 208 -224 380 -410 381 -415 2 -5 -108 -9
-250 -9 -366 0 -899 -12 -896 -20 2 -4 129 -136 283 -294 154 -158 281 -290
283 -294 1 -5 -124 -133 -278 -286 -154 -152 -280 -279 -280 -283 0 -3 259 -3
576 0 l577 7 285 283 c267 266 284 286 271 304 -8 11 -134 143 -281 293 -148
150 -268 276 -268 279 0 3 178 5 396 3 272 -2 400 1 409 8 10 8 13 74 14 288
0 152 1 324 1 382 l1 105 31 -35 c17 -19 83 -89 147 -155 64 -66 167 -174 229
-238 62 -65 117 -117 121 -115 5 2 134 123 286 271 153 147 279 266 281 264 2
-1 4 -175 5 -385 2 -259 6 -385 13 -390 6 -4 188 -9 404 -12 l392 -5 -262
-269 c-145 -148 -269 -278 -276 -290 -13 -20 2 -36 243 -276 140 -140 260
-256 265 -258 6 -2 10 -8 10 -13 0 -5 -155 -9 -377 -9 -221 0 -384 -4 -393
-10 -13 -8 -16 -67 -20 -394 l-5 -386 -230 222 c-126 121 -252 241 -278 267
l-48 46 -62 -66 c-34 -37 -140 -148 -236 -248 -96 -100 -187 -196 -202 -214
l-29 -32 0 100 c0 55 -1 222 -1 370 0 149 -3 278 -6 288 -4 16 -30 18 -419 17
l-414 -1 -53 -57 c-117 -126 -615 -652 -679 -716 -37 -38 -68 -73 -68 -77 0
-5 187 -7 415 -5 l415 4 0 -399 c0 -219 3 -399 8 -399 4 0 180 183 392 406
l385 407 3 -557 c1 -306 6 -556 10 -556 4 0 31 26 60 57 29 32 136 144 236
248 101 105 195 205 210 223 15 17 31 32 35 32 7 0 13 -5 349 -330 128 -124
237 -226 243 -228 5 -2 10 220 11 564 l3 567 374 -394 c206 -217 378 -395 383
-397 4 -2 8 177 8 397 l0 401 410 0 c226 0 410 4 410 8 0 7 -534 576 -708 754
l-55 57 556 -6 c306 -3 557 -3 557 0 0 3 -126 131 -280 283 -154 153 -279 281
-278 286 2 4 131 138 287 298 156 160 282 293 279 295 -2 2 -255 8 -562 12
l-558 8 383 404 c211 222 386 408 387 412 2 5 -180 9 -410 9 l-413 0 0 400 c0
220 -3 400 -6 400 -3 0 -179 -182 -390 -405 l-384 -406 -3 572 c-1 328 -6 569
-11 567 -5 -2 -139 -128 -297 -281 -159 -152 -293 -277 -299 -276 -9 2 -276
279 -474 491 -35 37 -67 68 -72 68 -5 0 -10 -253 -11 -562z"/>
</g>
</svg>
